<svg aria-hidden="true" style="width:0;height:0;position:absolute;overflow:hidden" xmlns="http://www.w3.org/2000/svg"><defs><symbol id="arrow-left-icon" viewBox="0 0 32 32"><path stroke-linejoin="round" stroke-linecap="round" stroke-width="2.67" d="M25.33 16H6.67M16 25.33 6.67 16 16 6.67"/></symbol><symbol id="arrow-right-icon" viewBox="0 0 32 32"><path stroke-linejoin="round" stroke-linecap="round" stroke-width="2.67" d="M6.67 16h18.66M16 25.33 25.33 16 16 6.67"/></symbol><symbol id="close-icon" viewBox="0 0 32 32"><path stroke-width="2.13" d="m8.53 8.53 14.94 14.94m-14.94 0L23.47 8.53"/></symbol><symbol id="film-icon" viewBox="0 0 32 32"><path fill="none" stroke="#fff" style="stroke:var(--color1,#fff)" stroke-linejoin="round" stroke-linecap="round" stroke-width="2.67" d="M26.43 2.67H5.57a2.9 2.9 0 0 0-2.9 2.9v20.86c0 1.6 1.3 2.9 2.9 2.9h20.86c1.6 0 2.9-1.3 2.9-2.9V5.57c0-1.6-1.3-2.9-2.9-2.9zm-17.1 0v26.66M22.67 2.67v26.66M2.67 16h26.66M2.67 9.33h6.66M2.67 22.67h6.66m13.34 0h6.66M22.67 9.33h6.66"/></symbol><symbol id="heart-icon" viewBox="0 0 32 32"><path fill="#ff6b08" d="m16 30.14-2.24-2.21C5.44 20.63 0 15.73 0 9.7A8.63 8.63 0 0 1 8.8.99 9.65 9.65 0 0 1 16 4.32 9.66 9.66 0 0 1 23.2 1C28.16 1 32 4.8 32 9.71c0 6.02-5.44 10.93-13.76 18.22L16 30.14z"/></symbol><symbol id="search-icon" viewBox="0 0 32 32"><path fill="none" stroke="#fff" style="stroke:var(--color1,#fff)" stroke-linejoin="round" stroke-linecap="round" stroke-width="2.67" d="M14.67 25.33a10.67 10.67 0 1 0 0-21.33 10.67 10.67 0 0 0 0 21.33zM28 28l-5.8-5.8"/></symbol><symbol id="icon-close-black-18dp-2-1-1" viewBox="0 0 32 32"><path d="m26.68 7.3-1.97-1.96-7.81 7.81-7.81-7.81L7.12 7.3l7.8 7.81-7.8 7.81 1.97 1.97 7.81-7.8 7.81 7.8 1.97-1.97-7.8-7.8 7.8-7.82z"/></symbol><symbol id="icon-fond" viewBox="0 0 117 19" fill="none"><path d="M23.97 1.03h2.1l-.16.45h-1.4v.91h.28c.38 0 .69.05.92.17.32.16.5.45.5.87 0 .62-.38 1.06-1.37 1.06h-.87V1.03Zm.88 3c.54 0 .8-.19.8-.59 0-.23-.1-.4-.26-.49-.14-.08-.34-.1-.59-.1h-.28v1.18h.33Zm1.88.47v-.51h.11c.15 0 .28-.06.39-.23a8 8 0 0 0 .6-2.73h1.75V4.5h-.56v-3h-.72a7.1 7.1 0 0 1-.66 2.63.82.82 0 0 1-.74.4c-.03 0-.12 0-.17-.02Zm4.87-3.48h.42l1.37 3.47h-.6l-.33-.89h-1.28l-.33.89h-.58l1.33-3.47Zm.69 2.13L32 2.36l-.18-.55h-.01a5.8 5.8 0 0 1-.19.55l-.28.79h.95Zm1.8-2.12h1.88l-.16.47h-1.17v2.99h-.55V1.03Zm2.37 1.74c0-1.05.72-1.77 1.73-1.77 1 0 1.72.73 1.72 1.77 0 1.07-.74 1.77-1.72 1.77-1 0-1.73-.7-1.73-1.77Zm2.86 0c0-.78-.43-1.3-1.14-1.3-.68 0-1.13.5-1.13 1.3s.45 1.3 1.13 1.3c.69 0 1.14-.5 1.14-1.3Zm1.18 1.25h.2c.48-.6.82-1.66 1.02-2.99h1.63v2.99h.44v1.44h-.53v-.97h-2.23v.97h-.53V4.02Zm2.3-2.54h-.64c-.16 1.12-.5 2-.84 2.52v.02h1.48V1.48Zm1.77-.45h.55V4.5h-.55V1.03Zm1.62 0h.55V3l-.01.6h.01l.42-.6 1.48-1.96h.54V4.5h-.55V2.43l.01-.56c-.12.16-.25.35-.43.57L46.68 4.5h-.5V1.03Zm.61-1h.46c0 .24.12.43.44.43.31 0 .43-.2.43-.43h.47c0 .49-.32.84-.9.84-.6 0-.91-.35-.9-.84Zm3.45 1h.55V2.5h1.73V1.03h.55V4.5h-.55V2.96H50.8v1.53h-.55V1.03Zm3.9 0h.55V3l-.01.6.43-.6 1.48-1.96h.54V4.5h-.55V2.43l.01-.56h-.01l-.42.57-1.54 2.05h-.48V1.03Zm4.06 0h.55V3l-.01.6h.01l.43-.6 1.47-1.96h.54V4.5h-.55V2.43l.01-.56c-.12.16-.25.35-.43.57L58.7 4.5h-.5V1.03h.01Zm.61-1h.47c0 .24.11.43.43.43.31 0 .43-.2.43-.43h.47c0 .49-.32.84-.9.84-.6 0-.91-.35-.9-.84Zm6.09 4.07c-.91-.06-1.45-.5-1.45-1.34 0-.83.55-1.3 1.45-1.37V.95h.55v.44c.9.07 1.44.55 1.44 1.37 0 .84-.54 1.28-1.44 1.35v.47h-.55v-.47Zm0-2.24c-.57.05-.9.33-.9.9 0 .55.3.83.9.87V1.86Zm1.43.9c0-.54-.3-.85-.88-.9v1.77c.57-.04.88-.3.88-.87Zm1.32.01c0-1.05.72-1.77 1.73-1.77 1 0 1.72.73 1.72 1.77 0 1.07-.74 1.77-1.72 1.77-1 0-1.73-.7-1.73-1.77Zm2.86 0c0-.78-.43-1.3-1.13-1.3-.69 0-1.14.5-1.14 1.3s.45 1.3 1.14 1.3c.68 0 1.13-.5 1.13-1.3Zm1.5-1.74h.55V2.5h1.73V1.03h.55V4.5h-.55V2.96h-1.73v1.53h-.55V1.03Zm3.58 2.99h.2c.48-.6.82-1.66 1.02-2.99h1.63v2.99h.44v1.44h-.54v-.97h-2.22v.97h-.54V4.02Zm2.3-2.54h-.64c-.17 1.12-.5 2-.84 2.52v.02h1.48V1.48ZM29.87 17.72c-.8.42-1.58.58-2.33.58-2.44 0-3.86-1.68-3.86-4 0-2.3 1.62-4.14 4.03-4.14.85 0 1.58.2 2 .42v1c-.57-.3-1.18-.5-1.98-.5-1.8 0-2.91 1.43-2.91 3.17 0 1.85 1.1 3.13 2.84 3.13.75 0 1.35-.22 1.9-.52l.3.86Zm1.83-7.49h4.01l-.32.92h-2.62v2.52h2.6v.91h-2.6v2.68h3v.91H31.7v-7.94Zm6.26 0h1.62c.78 0 1.32.12 1.75.36.75.41 1.2 1.16 1.2 2.19 0 .91-.4 1.8-1.4 2.24a4 4 0 0 1-1.64.29h-.46v2.87h-1.07v-7.95Zm1.6 4.2c.48 0 .83-.09 1.08-.22.52-.27.76-.76.76-1.43 0-.63-.24-1.14-.7-1.41a2.14 2.14 0 0 0-1.13-.26h-.54v3.32h.53Zm4.99-4.2h4.14l-.33.92h-2.75v7.02h-1.06v-7.94Zm5.68 0h1.07v7.94h-1.07v-7.94Zm4.19 5.41c.3-.59.51-.91.84-1.1v-.02a1.94 1.94 0 0 1-1.4-1.96c0-1.54 1.12-2.33 2.62-2.33h2.17v7.94h-1.08v-3.29h-1.2c-.24 0-.53.26-.88.97l-1.13 2.32H53.1l1.3-2.53ZM56.58 14h1v-2.89h-.96c-.96 0-1.65.5-1.65 1.5 0 .97.7 1.4 1.61 1.4Zm7.68-3.77h5.98v7.94h-1.07v-7.02h-3.84v7.02h-1.07v-7.94Zm8.49 0h1.63c.77 0 1.31.12 1.75.36.75.41 1.2 1.16 1.2 2.19 0 .91-.4 1.8-1.4 2.24a4 4 0 0 1-1.65.29h-.45v2.87h-1.08v-7.95Zm1.6 4.2c.49 0 .84-.09 1.1-.22.5-.27.75-.76.75-1.43 0-.63-.24-1.14-.71-1.41a2.14 2.14 0 0 0-1.12-.26h-.54v3.32h.53Zm5-4.2h1.06v4.8c0 .55 0 .95-.02 1.37h.02c.26-.38.6-.88 1.07-1.48l3.53-4.69h1.04v7.94h-1.07V13.2c0-.58 0-.96.02-1.33h-.02c-.27.39-.6.86-1.04 1.44l-3.68 4.86h-.91v-7.94Zm10.7.92h-2.29v-.92h5.89l-.33.92h-2.2v7.02h-1.07v-7.02Zm5.71 7.06v-.93c.14.04.28.05.42.05.72 0 1.04-.48 1.5-1.42l-2.81-5.68h1.19l2.16 4.55h.02l1.97-4.55h1.17l-2.78 6.08c-.63 1.42-1.35 1.95-2.32 1.95a2.7 2.7 0 0 1-.52-.05Zm5.67 0v-1c.1.02.19.02.24.02.35 0 .68-.16.94-.59.73-1.25 1.24-4.48 1.4-6.4h3.78v7.93h-1.07v-7.06h-1.8c-.14 1.81-.69 4.88-1.5 6.18a1.81 1.81 0 0 1-2 .92Zm8.87-7.98h1.06v4.8c0 .55 0 .95-.02 1.37h.02c.27-.38.6-.88 1.07-1.48l3.53-4.69H117v7.94h-1.07V13.2c0-.58 0-.96.02-1.33h-.02c-.27.39-.6.86-1.04 1.44l-3.67 4.86h-.92v-7.94Z" fill="#000"/><path d="M8.13 0v15.33h2.84V2.83h4.36v5.3h2.83V0H8.13Zm7.2 15.33v2.83h2.83v-7.19h-2.83v4.36Z" fill="#001E61"/><path d="M15.33 8.13h-4.36v2.84h7.19V8.13h-2.83Z" fill="#D48232"/><path d="M2.84 15.33v-4.36h5.3V8.13H0v10.03h15.33v-2.83H2.83Z" fill="#D48232"/></symbol></defs></svg>