<svg aria-hidden="true" style="position:absolute;width:0;height:0;overflow:hidden" xmlns="http://www.w3.org/2000/svg">
  <defs>
    <symbol id="arrow-left-icon" viewBox="0 0 32 32">
      <path stroke-linejoin="round" stroke-linecap="round" stroke-width="2.67"
        d="M25.33 16H6.67M16 25.33 6.67 16 16 6.67" />
    </symbol>
    <symbol id="arrow-right-icon" viewBox="0 0 32 32">
      <path stroke-linejoin="round" stroke-linecap="round" stroke-width="2.67"
        d="M6.67 16h18.66M16 25.33 25.33 16 16 6.67" />
    </symbol>
    <symbol id="close-icon" viewBox="0 0 32 32">
      <path stroke-width="2.13" d="m8.53 8.53 14.94 14.94M8.53 23.47 23.47 8.53" />
    </symbol>
    <symbol id="film-icon" viewBox="0 0 32 32">
      <path fill="none" stroke="#fff" style="stroke:var(--color1, #fff)" stroke-linejoin="round" stroke-linecap="round"
        stroke-width="2.67"
        d="M26.43 2.67H5.57a2.9 2.9 0 0 0-2.9 2.9v20.86c0 1.6 1.3 2.9 2.9 2.9h20.86c1.6 0 2.9-1.3 2.9-2.9V5.57c0-1.6-1.3-2.9-2.9-2.9zM9.33 2.67v26.66M22.67 2.67v26.66M2.67 16h26.66M2.67 9.33h6.66M2.67 22.67h6.66M22.67 22.67h6.66M22.67 9.33h6.66" />
    </symbol>
    <symbol id="heart-icon" viewBox="0 0 32 32">
      <path
        d="m16 30.14-2.24-2.21C5.44 20.63 0 15.73 0 9.7A8.63 8.63 0 0 1 8.8.99 9.65 9.65 0 0 1 16 4.32 9.66 9.66 0 0 1 23.2 1C28.16 1 32 4.8 32 9.71c0 6.02-5.44 10.93-13.76 18.22L16 30.14z" />
    </symbol>
    <symbol id="search-icon" viewBox="0 0 32 32">
      <path fill="none" stroke="#fff" style="stroke:var(--color1, #fff)" stroke-linejoin="round" stroke-linecap="round"
        stroke-width="2.67" d="M14.67 25.33a10.67 10.67 0 1 0 0-21.33 10.67 10.67 0 0 0 0 21.33zM28 28l-5.8-5.8" />
    </symbol>
  </defs>
</svg>